<svg xmlns="http://www.w3.org/2000/svg" viewBox="0 0 32 32" id="profile"><path d="M11.78,11.28A4.462,4.462,0,0,1,16,6.61a4.462,4.462,0,0,1,4.22,4.67A4.45912,4.45912,0,0,1,16,15.94,4.45912,4.45912,0,0,1,11.78,11.28ZM30.04,16a13.91894,13.91894,0,0,1-2.39,7.82,1.43134,1.43134,0,0,1-.14.2,14.01332,14.01332,0,0,1-23.02,0,1.43134,1.43134,0,0,1-.14-.2A14.03633,14.03633,0,1,1,30.04,16ZM3.46,16a12.51091,12.51091,0,0,0,1.57,6.09C7.2,19.24,11.36,17.46,16,17.46s8.8,1.78,10.97,4.63A12.543,12.543,0,1,0,3.46,16Z" data-name="Layer 6"></path></svg>